<svg width="16" height="16" viewBox="0 0 16 16" fill="none" xmlns="http://www.w3.org/2000/svg">
<path fill-rule="evenodd" clip-rule="evenodd" d="M4.66675 1.33335C4.66675 0.965164 4.96522 0.666687 5.33341 0.666687H10.6667C11.0349 0.666687 11.3334 0.965164 11.3334 1.33335C11.3334 1.70154 11.0349 2.00002 10.6667 2.00002H5.33341C4.96522 2.00002 4.66675 1.70154 4.66675 1.33335Z" fill="#7B94CB"/>
<path fill-rule="evenodd" clip-rule="evenodd" d="M6 0.666687C6.36819 0.666687 6.66667 0.965164 6.66667 1.33335V3.19269C6.66665 3.85082 6.47181 4.49424 6.1067 5.04182C6.10669 5.04184 6.10671 5.0418 6.1067 5.04182L5.66937 5.69782C5.45019 6.02651 5.33324 6.41281 5.33333 6.80787V13.3334C5.33333 13.5102 5.40357 13.6797 5.5286 13.8048C5.65362 13.9298 5.82319 14 6 14H10C10.1768 14 10.3464 13.9298 10.4714 13.8048C10.5964 13.6797 10.6667 13.5102 10.6667 13.3334V6.80737C10.6667 6.80736 10.6667 6.80738 10.6667 6.80737C10.6667 6.41248 10.5497 6.02642 10.3307 5.69787L9.89333 5.04187C9.89332 5.04185 9.89334 5.04189 9.89333 5.04187C9.5281 4.4941 9.33322 3.85039 9.33333 3.19202C9.33333 3.19197 9.33333 3.19207 9.33333 3.19202V1.33335C9.33333 0.965164 9.63181 0.666687 10 0.666687C10.3682 0.666687 10.6667 0.965164 10.6667 1.33335V3.19202C10.6666 3.58708 10.7835 3.97348 11.0027 4.30217L11.44 4.95817C11.8051 5.50576 12 6.14918 12 6.80734V13.3334C12 13.8638 11.7893 14.3725 11.4142 14.7476C11.0391 15.1226 10.5304 15.3334 10 15.3334H6C5.46957 15.3334 4.96086 15.1226 4.58579 14.7476C4.21071 14.3725 4 13.8638 4 13.3334V6.80817C4 6.80812 4 6.80822 4 6.80817C3.99988 6.1498 4.19473 5.50599 4.55997 4.95822C4.55996 4.95824 4.55998 4.9582 4.55997 4.95822L4.9973 4.30222C5.21637 3.97367 5.33332 3.58758 5.33333 3.19269C5.33333 3.19268 5.33333 3.19269 5.33333 3.19269V1.33335C5.33333 0.965164 5.63181 0.666687 6 0.666687Z" fill="#7B94CB"/>
<path fill-rule="evenodd" clip-rule="evenodd" d="M6.33326 10.3317C5.84942 10.3317 5.37041 10.428 4.92412 10.6149C4.5845 10.7571 4.1939 10.5971 4.05167 10.2575C3.90945 9.91788 4.06946 9.52728 4.40908 9.38506C5.01848 9.12984 5.67257 8.99841 6.33326 8.99841C6.99395 8.99841 7.64804 9.12984 8.25745 9.38506L8.25753 9.38509C8.70378 9.57204 9.18277 9.66832 9.6666 9.66832C10.1504 9.66832 10.6294 9.57204 11.0757 9.38509C11.4153 9.24282 11.8059 9.40278 11.9482 9.74238C12.0904 10.082 11.9305 10.4726 11.5909 10.6149C10.9815 10.8702 10.3273 11.0017 9.6666 11.0017C9.0059 11.0017 8.3518 10.8702 7.74241 10.6149M6.33326 10.3317C6.81708 10.3317 7.29606 10.428 7.74233 10.6149L6.33326 10.3317Z" fill="#7B94CB"/>
</svg>
