<svg width="16" height="16" viewBox="0 0 16 16" fill="none" xmlns="http://www.w3.org/2000/svg">
<g clip-path="url(#clip0_1639_215)">
<path fill-rule="evenodd" clip-rule="evenodd" d="M4.67364 2.66666C5.55507 2.66814 6.32625 2.95403 6.94006 3.26547C7.24881 3.42212 7.52541 3.58929 7.75932 3.7354C7.82897 3.77891 7.89264 3.81911 7.95149 3.85626C7.96806 3.86672 7.98425 3.87694 8.00008 3.88692C8.01591 3.87694 8.0321 3.86672 8.04868 3.85626C8.10752 3.81911 8.1712 3.77891 8.24085 3.7354C8.47476 3.58929 8.75136 3.42212 9.06011 3.26547C9.67413 2.95393 10.4456 2.66794 11.3274 2.66666C12.3647 2.64898 13.3672 3.04113 14.1172 3.75813C14.8688 4.47663 15.3058 5.46307 15.3332 6.50245C15.3333 6.5083 15.3334 6.51414 15.3334 6.51999C15.3334 8.04552 14.8019 10.1759 14.0258 11.9194C13.6361 12.7949 13.1673 13.6133 12.6405 14.2246C12.1328 14.8137 11.4636 15.3333 10.6667 15.3333C10.1332 15.3333 9.62001 15.1243 9.23286 14.9667C9.20325 14.9546 9.17438 14.9428 9.14629 14.9315C8.69939 14.751 8.35372 14.6267 8.00008 14.6267C7.64645 14.6267 7.30077 14.751 6.85387 14.9315C6.82579 14.9428 6.79692 14.9546 6.76731 14.9667C6.38016 15.1243 5.86699 15.3333 5.33342 15.3333C4.53659 15.3333 3.86736 14.8137 3.35964 14.2246C2.83289 13.6133 2.36405 12.7949 1.97436 11.9194C1.19831 10.1759 0.666748 8.04552 0.666748 6.51999L0.666945 6.50381C0.692209 5.46336 1.1288 4.47534 1.88108 3.75616C2.6317 3.03857 3.63557 2.64699 4.67364 2.66666ZM4.65295 3.99985C3.96514 3.9856 3.29973 4.24454 2.80245 4.71993C2.30708 5.19351 2.01879 5.84344 2.00009 6.5283C2.0021 7.81614 2.47008 9.75424 3.19247 11.3772C3.55278 12.1867 3.95894 12.8775 4.36969 13.3542C4.79947 13.8529 5.13024 14 5.33342 14C5.59237 14 5.87497 13.8888 6.35463 13.6952C6.78273 13.5223 7.35372 13.2933 8.00008 13.2933C8.64645 13.2933 9.21744 13.5223 9.64554 13.6952C10.1252 13.8888 10.4078 14 10.6667 14C10.8699 14 11.2007 13.8529 11.6305 13.3542C12.0412 12.8775 12.4474 12.1867 12.8077 11.3772C13.53 9.75454 13.9979 7.81685 14.0001 6.52901C13.9798 5.84449 13.691 5.19529 13.1958 4.72191C12.6986 4.24656 12.0336 3.98703 11.3459 3.99987L11.3334 3.99999C10.7377 3.99999 10.178 4.19342 9.66339 4.45451C9.40714 4.58453 9.16957 4.72736 8.94724 4.86624C8.89545 4.89859 8.84262 4.93195 8.78962 4.96542C8.6282 5.06735 8.46527 5.17024 8.32582 5.24833C8.12345 5.36165 7.87672 5.36165 7.67435 5.24833C7.5349 5.17024 7.37197 5.06735 7.21055 4.96542C7.15755 4.93195 7.10472 4.89859 7.05293 4.86624C6.83059 4.72736 6.59303 4.58453 6.33677 4.45451C5.82218 4.19342 5.26245 3.99999 4.66675 3.99999L4.65295 3.99985Z" fill="#E07B67"/>
<path fill-rule="evenodd" clip-rule="evenodd" d="M6.07028 1.03517C6.23494 0.705855 6.63539 0.572372 6.96471 0.737032C7.95912 1.23423 8.66657 2.55283 8.66657 4.66665C8.66657 5.03484 8.36809 5.33332 7.9999 5.33332C7.63171 5.33332 7.33324 5.03484 7.33324 4.66665C7.33324 2.78046 6.70735 2.09907 6.36843 1.9296C6.03911 1.76494 5.90562 1.36449 6.07028 1.03517Z" fill="#E07B67"/>
</g>
<defs>
<clipPath id="clip0_1639_215">
<rect width="16" height="16" fill="white"/>
</clipPath>
</defs>
</svg>
